<?xml version="1.0" encoding="utf-8"?>
<!-- Generator: Adobe Illustrator 28.0.0, SVG Export Plug-In . SVG Version: 6.00 Build 0)  -->
<svg version="1.1" id="Capa_1" xmlns="http://www.w3.org/2000/svg" xmlns:xlink="http://www.w3.org/1999/xlink" x="0px" y="0px"
	 viewBox="0 0 458 127" style="enable-background:new 0 0 458 127;" xml:space="preserve">
<style type="text/css">
	.st0{fill:#0F2417;}
</style>
<g>
	<path class="st0" d="M416.7,104.5v5c-7.9-0.2-12.1-3.1-15.8-5.7c-3.7-2.6-6.9-4.7-13.6-4.7c-6.7,0-9.9,2.2-13.6,4.7
		c-3.9,2.7-8.3,5.7-16.6,5.7s-12.8-3-16.6-5.7c-3.7-2.6-6.9-4.7-13.6-4.7c-6.7,0-9.9,2.2-13.6,4.7c-3.9,2.7-8.3,5.7-16.6,5.7
		s-12.8-3-16.6-5.7c-3.6-2.5-6.7-4.6-12.9-4.7c-6.3,0.1-9.4,2.3-12.9,4.7c-3.9,2.7-8.3,5.7-16.6,5.7c-8.4,0-12.8-3-16.6-5.7
		c-3.7-2.6-6.9-4.7-13.6-4.7c-6.7,0-9.9,2.2-13.6,4.7c-3.9,2.7-8.3,5.7-16.6,5.7c-8.4,0-12.8-3-16.6-5.7c-3.7-2.6-6.9-4.7-13.6-4.7
		c-0.1,0-0.1,0-0.1,0v-5c0.1,0,0.1,0,0.1,0c8.4,0,12.8,3,16.6,5.7c3.7,2.6,6.9,4.8,13.6,4.8c6.7,0,9.9-2.2,13.6-4.8
		c3.9-2.7,8.2-5.7,16.6-5.7c8.4,0,12.8,3,16.6,5.7c3.7,2.6,6.9,4.8,13.6,4.8c6.7,0,9.9-2.2,13.6-4.8c3.6-2.5,7.7-5.3,15.2-5.6
		c0.2,0,0.4,0,0.7,0h0.2c0.2,0,0.4,0,0.6,0c8.4,0,12.8,3,16.6,5.7c3.5,2.4,6.6,4.5,12.8,4.7v0c6.3-0.1,9.5-2.3,13.1-4.8
		c3.9-2.7,8.2-5.7,16.6-5.7c8.4,0,12.8,3,16.6,5.7c3.7,2.6,6.9,4.8,13.6,4.8c6.7,0,9.9-2.2,13.6-4.8c3.9-2.7,8.2-5.7,16.6-5.7
		c8.4,0,12.8,3,16.6,5.7C407.4,102.2,410.4,104.3,416.7,104.5z"/>
	<path class="st0" d="M416.7,122.2v4.9l-1.3,0c-7.1-0.5-11.1-3.2-14.6-5.6c-3.7-2.6-6.9-4.7-13.6-4.7c-6.7,0-9.9,2.2-13.6,4.7
		c-3.9,2.7-8.3,5.7-16.6,5.7s-12.8-3-16.6-5.7c-3.7-2.6-6.9-4.7-13.6-4.7c-6.7,0-9.9,2.2-13.6,4.7c-3.9,2.7-8.3,5.7-16.6,5.7
		s-12.8-3-16.6-5.7c-3.6-2.5-6.7-4.6-12.9-4.7c-6.3,0.1-9.4,2.3-12.9,4.7c-3.9,2.7-8.3,5.7-16.6,5.7c-8.4,0-12.8-3-16.6-5.7
		c-3.7-2.6-6.9-4.7-13.6-4.7c-6.7,0-9.9,2.2-13.6,4.7c-3.9,2.7-8.3,5.7-16.6,5.7c-8.4,0-12.8-3-16.6-5.7c-3.7-2.6-6.9-4.7-13.6-4.7
		c-0.1,0-0.1,0-0.1,0v-5c0.1,0,0.1,0,0.1,0c8.4,0,12.8,3,16.6,5.7c3.7,2.6,6.9,4.7,13.6,4.7c6.7,0,9.9-2.2,13.6-4.7
		c3.9-2.7,8.2-5.7,16.6-5.7c8.4,0,12.8,3,16.6,5.7c3.7,2.6,6.9,4.7,13.6,4.7c6.7,0,9.9-2.2,13.6-4.7c3.6-2.5,7.7-5.3,15.2-5.6
		c0.2,0,0.4,0,0.6,0c0.1,0,0.2,0,0.3,0c0.2,0,0.3,0,0.5,0c8.4,0,12.8,3,16.6,5.7c3.5,2.4,6.6,4.5,12.7,4.7c6.5-0.1,9.6-2.2,13.2-4.7
		c3.9-2.7,8.2-5.7,16.6-5.7c8.4,0,12.8,3,16.6,5.7c3.7,2.6,6.9,4.7,13.6,4.7c6.7,0,9.9-2.2,13.6-4.7c3.9-2.7,8.2-5.7,16.6-5.7
		c8.4,0,12.8,3,16.6,5.7C407.3,120,410.4,122.1,416.7,122.2L416.7,122.2z"/>
	<path class="st0" d="M275.4,95.1c-0.2,0-0.4,0-0.6,0v0c0,0,0,0,0.1,0C275.1,95.1,275.2,95.1,275.4,95.1z"/>
	<path class="st0" d="M284.5,112.9c-0.2,0-0.4,0-0.6,0v0c0.1,0,0.1,0,0.1,0C284.2,112.9,284.3,112.9,284.5,112.9z"/>
	<path class="st0" d="M57.9,14.6L69.1,78H52.8l-3.5-19.1l-15,25.2L19.4,58.9L15.1,78H0.3l10.4-63.4l24,40.1L57.9,14.6z"/>
	<path class="st0" d="M357.9,68.5h-19.4L334,78h-18.7l32.2-65.2L381.1,78h-18.9L357.9,68.5z M351,52l-3.5-8l-3.5,8H351z"/>
	<path class="st0" d="M159,34.9V39h24.9v17.3H159v4.4h24.9V78L159,78.1h-17.3V17h42.1v17.9H159z"/>
	<path class="st0" d="M219.8,35.4c1.6,0-3.5-1.2-6,2.2c-1.6,2.1-0.5,15-2.6,25.4c-2.7,13.5-15.2,15.6-23.4,15.2V60.1
		c0,0,5.5,0.3,8-3.2c1.6-2.2,1.2-8,1.4-15.3C197.7,26,204.1,17,219.8,17L219.8,35.4L219.8,35.4z"/>
	<path class="st0" d="M263.3,34.7h-11.1V78h-17.6V34.8h-11.2V17.1h40L263.3,34.7L263.3,34.7z"/>
	<path class="st0" d="M308.2,80c-9.4-0.4-19-6.6-24.2-14.3V78h-17.3V17h20.1c15.3,0,28.4,8.4,28.4,23.7c0,12.4-9,18.9-12.5,19.7
		c0,0,1.4,1.5,4.6,3.1c3.4,1.5,7.5,1.9,7.5,1.9L308.2,80z M284,49.6c6.1,1.6,11.6-1.6,11.6-7.3c0-5.1-6.3-8.1-11.6-6.9V49.6z"/>
	<path class="st0" d="M416.9,37.3h-11.1v43.2h-17.6V37.3H377V19.5h40L416.9,37.3L416.9,37.3z"/>
	<g>
		<path class="st0" d="M0.3,94l16.9,18.2V94h4.9v32.2L5.2,107.4v18.8H0.3V94z"/>
		<path class="st0" d="M40.1,94l14.3,32.2h-5l-2.9-6.3H33.8l-2.9,6.3h-5L40.1,94z M35.5,115.7h9.2L40,105.2L35.5,115.7z"/>
		<path class="st0" d="M49.3,94h21.2v4.2h-8.1V126h-5V98.2h-8.1V94z"/>
		<path class="st0" d="M95.3,113.1c0,8.4-3.5,12.7-10.6,13c-7.1-0.3-10.6-4.7-10.6-13V94h5v19.1c0,5.4,1.9,8,5.6,8
			c3.7,0,5.6-2.7,5.6-8V94h5V113.1z"/>
		<path class="st0" d="M99,94h7.1c6.2,1.5,9.2,5,9.2,10.4c0,4.5-2.1,8-6.2,10.7l7.4,11h-6.2l-6.4-9.8v9.8H99V94z M103.9,98.2v13.2
			h0.7c3.8-0.7,5.7-2.9,5.7-6.7C110.3,100.8,108.2,98.7,103.9,98.2z"/>
		<path class="st0" d="M120.4,94.2h18.3v4.2h-13.4v12.5h9.9v4.9h-9.9v5.5h13.4v4.9h-18.3V94.2z"/>
	</g>
	<path class="st0" d="M108.5,20.3l9.1-17.6L112-0.2l-7,13.6v0.1l-0.4-0.7l-6.7-13l-5.5,2.9l8.9,17L72.5,78h66L108.5,20.3z
		 M96.1,65.7l8.6-21.8l9.4,21.8H96.1z"/>
	<path class="st0" d="M444,64.2v-7.7l10.3,10.4l3.4-3.4L444,49.7V42l10.3,10.4l3.4-3.4L444,35.2v-7.6L454.3,38l3.4-3.4L443.3,20l0,0
		c-0.9-0.9-2.3-1-3.3-0.1L440,20l-14.3,14.5L429,38l10.3-10.4v7.7l-13.6,13.8l3.4,3.4l10.3-10.4v7.7l-13.6,13.8L429,67l10.3-10.4
		v7.7l-13.6,13.8l3.4,3.4l10.3-10.4v57h4.8v-57l10.3,10.4l3.4-3.4L444,64.2z"/>
</g>
</svg>
